<?xml version="1.0" standalone="no"?><!DOCTYPE svg PUBLIC "-//W3C//DTD SVG 1.1//EN" "http://www.w3.org/Graphics/SVG/1.1/DTD/svg11.dtd"><svg class="icon" width="600px" height="600.00px" viewBox="0 0 1024 1024" version="1.1" xmlns="http://www.w3.org/2000/svg"><path fill="#61549c" d="M908.25 494.41c0-213.71-169.22-387.97-381.04-395.99-5.04-0.18-10.08-0.26-15.22-0.26-5.14 0-10.18 0.09-15.22 0.26-211.82 8.02-381.04 182.28-381.04 395.99S284.95 882.38 496.77 890.4c5.04 0.18 10.08 0.26 15.22 0.26 5.14 0 10.18-0.09 15.22-0.26 14.08-0.53 27.93-1.93 41.59-3.93 31.76 26.07 72.36 41.75 116.56 41.75 101.48 0 184.03-82.56 184.03-184.03 0-20.83-3.64-40.78-10.05-59.46 31.05-56.52 48.91-121.3 48.91-190.32zM512.09 189.83c35.39 46.11 96.36 142.3 106.54 268.55H405.37c10.18-125.72 71.33-222.26 106.72-268.55z m-82.22-9.18c-40.25 60.79-88.53 157.06-96.72 277.74H189.87c14.76-134.55 112.02-244.25 240-277.74z m-240 349.78h143.28c8.19 120.59 56.37 216.86 96.63 277.65-127.97-33.41-225.15-143.11-239.91-277.65z m311.46 213.76c0 17.42 2.59 34.22 7.14 50.2-35.76-47.68-93.24-141.63-103.1-263.96h213.25c-1.25 15.41-3.38 30.3-6.03 44.79-65.37 28.26-111.26 93.33-111.26 168.97z m184.03 141.35c-77.94 0-141.36-63.42-141.36-141.36s63.42-141.36 141.36-141.36 141.36 63.42 141.36 141.36-63.42 141.36-141.36 141.36z m128.29-273.05c-32.62-31.79-76.92-51.56-125.81-52.21 1.24-9.79 2.32-19.7 3.01-29.85h143.28c-3.15 28.7-10.32 56.13-20.48 82.06z m-122.8-154.11c-8.19-120.68-56.47-216.95-96.72-277.74 127.97 33.5 225.23 143.19 240 277.74H690.85z"  /><path fill="#61549c" d="M682.74 812.56h74.48v41.29H637.88V628.33h44.85v184.23z"  /></svg>