<?xml version="1.0" standalone="no"?><!DOCTYPE svg PUBLIC "-//W3C//DTD SVG 1.1//EN" "http://www.w3.org/Graphics/SVG/1.1/DTD/svg11.dtd"><svg class="icon" width="600px" height="600.00px" viewBox="0 0 1024 1024" version="1.1" xmlns="http://www.w3.org/2000/svg"><path fill="#61549c" d="M909.25 494.48c0-213.71-169.22-387.97-381.04-395.99-5.04-0.18-10.08-0.26-15.22-0.26s-10.18 0.09-15.22 0.26c-211.82 8.02-381.04 182.28-381.04 395.99s169.22 387.97 381.04 395.99c5.04 0.18 10.08 0.26 15.22 0.26s10.18-0.09 15.22-0.26c14.08-0.53 27.93-1.93 41.59-3.92 31.76 26.07 72.36 41.75 116.56 41.75 101.48 0 184.03-82.56 184.03-184.03 0-20.83-3.64-40.78-10.05-59.46 31.05-56.53 48.91-121.31 48.91-190.33zM513.09 189.9c35.39 46.11 96.36 142.3 106.54 268.55H406.37C416.55 332.74 477.7 236.2 513.09 189.9z m-82.22-9.18c-40.25 60.79-88.53 157.05-96.71 277.73H190.87c14.77-134.54 112.03-244.23 240-277.73z m-240 349.78h143.28c8.19 120.59 56.37 216.86 96.63 277.65-127.97-33.41-225.14-143.11-239.91-277.65z m311.46 213.76c0 17.42 2.59 34.22 7.14 50.2-35.76-47.68-93.24-141.63-103.1-263.96h213.25c-1.25 15.42-3.38 30.3-6.03 44.79-65.37 28.27-111.26 93.34-111.26 168.97z m184.03 141.36c-77.94 0-141.35-63.42-141.35-141.36 0-21.71 5.06-42.2 13.84-60.6l51.41 162.05h46.42l27.8-109.59h0.63l29.06 109.59h46.11l51.49-163.29h-46.11l-30.01 110.54h-0.64l-27.8-110.54h-43.58l-27.16 110.86h-0.64l-30.01-110.86h-46.39c22.99-47 71.16-79.52 126.91-79.52 77.94 0 141.36 63.42 141.36 141.36s-63.4 141.36-141.34 141.36z m128.29-273.05c-32.62-31.79-76.92-51.56-125.8-52.22 1.24-9.8 2.32-19.7 3.01-29.86h143.28c-3.16 28.71-10.33 56.15-20.49 82.08z m-122.8-154.11c-8.19-120.68-56.47-216.95-96.71-277.73 127.97 33.5 225.23 143.19 240 277.73H691.85z"  /></svg>