<?xml version="1.0" standalone="no"?><!DOCTYPE svg PUBLIC "-//W3C//DTD SVG 1.1//EN" "http://www.w3.org/Graphics/SVG/1.1/DTD/svg11.dtd"><svg class="icon" width="600px" height="600.00px" viewBox="0 0 1024 1024" version="1.1" xmlns="http://www.w3.org/2000/svg"><path fill="#61549c" d="M512 0c282.774588 0 512 229.225412 512 512s-229.225412 512-512 512S0 794.774588 0 512 229.225412 0 512 0z m-158.418824 752.790588V752.941176h316.837648v-0.150588c2.409412 0.090353 4.818824 0.150588 7.228235 0.150588 91.497412 0 165.647059-68.156235 165.647059-152.214588 0-62.945882-41.562353-116.976941-100.894118-140.137412l0.060235-5.150117C742.460235 336.956235 645.722353 240.941176 526.396235 240.941176a216.064 216.064 0 0 0-203.595294 142.546824C241.543529 401.558588 180.705882 476.461176 180.705882 566.121412c0 100.683294 76.739765 182.753882 172.875294 186.669176z m34.755765-153.20847l34.18353-25.389177c27.587765 34.334118 61.530353 50.928941 103.574588 50.928941 41.411765 0 71.68-15.992471 93.364706-49.242353l36.623059 22.016c-29.575529 45.417412-73.728 68.758588-129.987765 68.758589-55.657412 0-102.159059-22.738824-137.758118-67.072z"  /></svg>